/* XPM */
static char * layout2_xpm[] = {
"48 49 6 1",
" 	c None",
".	c #010000",
"+	c #000000",
"@	c #FFFFFF",
"#	c #AAACAC",
"$	c #A8A7A5",
".............................................+  ",
".@@@@@@@@@@@@@@@@@@@@@.@@@@@@@@@@@@@@@@@@@@@@+  ",
".@@@@@@@@@@@@@@@@@@@@@.@@@@@@@@@@@@@@@@@@@@@@+##",
".@@@@@@@@@@@@@@@@@@@@@.@@........@@........@@+##",
".$$$$$$$$$$$$$$$$$$$$$.@@.$@@@@$.@@.$@@@@$.@@.##",
".@@@@@@@@@@@@@@@@@@@@@.@@.@$@@$@.@@.@$@@$@.@@.##",
".@@@@@@@@@@@@@@@@@@@@@.@@.@@$$@@.@@.@@$$@@.@@.##",
".@@@@@@@@@@@@@@@@@@@@@.@@.@@$$@@.@@.@@$$@@.@@.##",
".$$$$$$$$$$$$$$$$$$$$$.@@.@$@@$@.@@.@$@@$@.@@.##",
".@@@@@@@@@@@@@@@@@@@@@.@@.$@@@@$.@@.$@@@@$.@@.##",
".@@@@@@@@@@@@@@@@@@@@@.@@........@@........@@.##",
".@@@@@@@@@@@@@@@@@@@@@.@@@@@@@@@@@@@@@@@@@@@@+##",
".$$$$$$$$$$$$$$$$$$$$$.@@@@@@@@@@@@@@@@@@@@@@+##",
".@@@@@@@@@@@@@@@@@@@@@.@@........@@........@@+##",
".@@@@@@@@@@@@@@@@@@@@@.@@.$@@@@$.@@.$@@@@$.@@.##",
".@@@@@@@@@@@@@@@@@@@@@.@@.@$@@$@.@@.@$@@$@.@@.##",
".$$$$$$$$$$$$$$$$$$$$$.@@.@@$$@@.@@.@@$$@@.@@.##",
".@@@@@@@@@@@@@@@@@@@@@.@@.@@$$@@.@@.@@$$@@.@@+##",
".@@@@@@@@@@@@@@@@@@@@@.@@.@$@@$@.@@.@$@@$@.@@+##",
".@@@@@@@@@@@@@@@@@@@@@.@@.$@@@@$.@@.$@@@@$.@@+##",
".$$$$$$$$$$$$$$$$$$$$$.@@........@@........@@+##",
".@@@@@@@@@@@@@@@@@@@@@.@@@@@@@@@@@@@@@@@@@@@@+##",
".@@@@@@@@@@@@@@@@@@@@@.@@@@@@@@@@@@@@@@@@@@@@+##",
".++++++++++++++++++++++++++...++++++++++++++++##",
".@@@@@@@@@@@@@@@@@@@@@@@@@@@@@@@@@@@@@@@@@@@@+##",
".@@@@@@@@@@@@@@@@@@@@@@@@@@@@@@@@@@@@@@@@@@@@+##",
".@@@@@@@@@@@@@@@@@@@@@@@@@@@@@@@@@@@@@@@@@@@@+##",
".@@@@@@@@@@@@@@@@@@@@@@@@@@@@@@@@@@@@@@@@@@@@+##",
".@@@@@@@@@@@@@@@@@@@@@@@@@@@@@@@@@@@@@@@@@@@@+##",
".@@@@@@@@@@@@@@@@@@@@@@@@@@@@@@@@@@@@@@@@@@@@+##",
".@@@@@@@@@@@@@@@@@@@@@@@@@@@@@@@@@@@@@@@@@@@@+##",
".@@@@@@@@@@@@@@@@@@@@@@@@@@@@@@@@@@@@@@@@@@@@+##",
".@@@@@@@@@@@@@@@@@@@@@@@@@@@@@@@@@@@@@@@@@@@@+##",
".@@@@@@@@@@@@@@@@@@@@@@@@@@@@@@@@@@@@@@@@@@@@+##",
".@@@@@@@@@@@@@@@@@@@@@@@@@@@@@@@@@@@@@@@@@@@@+##",
".@@@@@@@@@@@@@@@@@@@@@@@@@@@@@@@@@@@@@@@@@@@@+##",
".@@@@@@@@@@@@@@@@@@@@@@@@@@@@@@@@@@@@@@@@@@@@+##",
".@@@@@@@@@@@@@@@@@@@@@@@@@@@@@@@@@@@@@@@@@@@@+##",
".@@@@@@@@@@@@@@@@@@@@@@@@@@@@@@@@@@@@@@@@@@@@+##",
".@@@@@@@@@@@@@@@@@@@@@@@@@@@@@@@@@@@@@@@@@@@@+##",
".@@@@@@@@@@@@@@@@@@@@@@@@@@@@@@@@@@@@@@@@@@@@+##",
".@@@@@@@@@@@@@@@@@@@@@@@@@@@@@@@@@@@@@@@@@@@@+##",
"+@@@@@@@@@@@@@@@@@@@@@@@@@@@@@@@@@@@@@@@@@@@@+##",
".@@@@@@@@@@@@@@@@@@@@@@@@@@@@@@@@@@@@@@@@@@@@+##",
"+@@@@@@@@@@@@@@@@@@@@@@@@@@@@@@@@@@@@@@@@@@@@+##",
".@@@@@@@@@@@@@@@@@@@@@@@@@@@@@@@@@@@@@@@@@@@@+##",
"++++++++++++++++++++++++++++++++++++++++++++++##",
"  ##############################################",
"  ##############################################"};
