<?xml version="1.0" encoding="UTF-8" standalone="no"?>
<!-- Created with Inkscape (http://www.inkscape.org/) -->

<svg
   xmlns:dc="http://purl.org/dc/elements/1.1/"
   xmlns:cc="http://creativecommons.org/ns#"
   xmlns:rdf="http://www.w3.org/1999/02/22-rdf-syntax-ns#"
   xmlns:svg="http://www.w3.org/2000/svg"
   xmlns="http://www.w3.org/2000/svg"
   xmlns:xlink="http://www.w3.org/1999/xlink"
   xmlns:sodipodi="http://sodipodi.sourceforge.net/DTD/sodipodi-0.dtd"
   xmlns:inkscape="http://www.inkscape.org/namespaces/inkscape"
   width="744.09448819"
   height="1052.3622047"
   id="svg2"
   version="1.1"
   inkscape:version="0.48.3.1 r9886"
   sodipodi:docname="tool-adjust-contrast.svg">
  <defs
     id="defs4">
    <linearGradient
       id="linearGradient3863">
      <stop
         style="stop-color:#676767;stop-opacity:1;"
         offset="0"
         id="stop3865" />
      <stop
         style="stop-color:#1f1f1f;stop-opacity:1;"
         offset="1"
         id="stop3867" />
    </linearGradient>
    <linearGradient
       id="linearGradient3792">
      <stop
         id="stop3794"
         offset="0"
         style="stop-color:#b9b9b9;stop-opacity:1;" />
      <stop
         id="stop3796"
         offset="1"
         style="stop-color:#f1f1f1;stop-opacity:1;" />
    </linearGradient>
    <linearGradient
       id="linearGradient3780">
      <stop
         style="stop-color:#9b9b9b;stop-opacity:1;"
         offset="0"
         id="stop3782" />
      <stop
         style="stop-color:#ffffff;stop-opacity:1;"
         offset="1"
         id="stop3784" />
    </linearGradient>
    <linearGradient
       id="linearGradient3757">
      <stop
         style="stop-color:#191919;stop-opacity:1;"
         offset="0"
         id="stop3759" />
      <stop
         style="stop-color:#c2c2c2;stop-opacity:1;"
         offset="1"
         id="stop3761" />
    </linearGradient>
    <linearGradient
       inkscape:collect="always"
       xlink:href="#linearGradient3757"
       id="linearGradient3829"
       gradientUnits="userSpaceOnUse"
       x1="271.95724"
       y1="488.31439"
       x2="216.39883"
       y2="371.70749" />
    <linearGradient
       inkscape:collect="always"
       xlink:href="#linearGradient3792"
       id="linearGradient3833"
       gradientUnits="userSpaceOnUse"
       x1="271.95724"
       y1="488.31439"
       x2="216.39883"
       y2="371.70749" />
    <linearGradient
       inkscape:collect="always"
       xlink:href="#linearGradient3780"
       id="linearGradient3847"
       gradientUnits="userSpaceOnUse"
       x1="239.21428"
       y1="500.23215"
       x2="239.34822"
       y2="370.94644"
       gradientTransform="translate(1.4142162,-202.73761)" />
    <linearGradient
       inkscape:collect="always"
       xlink:href="#linearGradient3780"
       id="linearGradient3849"
       gradientUnits="userSpaceOnUse"
       x1="239.21428"
       y1="500.23215"
       x2="239.34822"
       y2="370.94644" />
  </defs>
  <sodipodi:namedview
     id="base"
     pagecolor="#ffffff"
     bordercolor="#666666"
     borderopacity="1.0"
     inkscape:pageopacity="0.0"
     inkscape:pageshadow="2"
     inkscape:zoom="0.49497475"
     inkscape:cx="-0.91030125"
     inkscape:cy="323.18656"
     inkscape:document-units="px"
     inkscape:current-layer="layer1"
     showgrid="false"
     inkscape:window-width="1920"
     inkscape:window-height="1141"
     inkscape:window-x="0"
     inkscape:window-y="27"
     inkscape:window-maximized="1" />
  <metadata
     id="metadata7">
    <rdf:RDF>
      <cc:Work
         rdf:about="">
        <dc:format>image/svg+xml</dc:format>
        <dc:type
           rdf:resource="http://purl.org/dc/dcmitype/StillImage" />
        <dc:title></dc:title>
      </cc:Work>
    </rdf:RDF>
  </metadata>
  <g
     inkscape:label="Livello 1"
     inkscape:groupmode="layer"
     id="layer1">
    <g
       id="g3908"
       transform="translate(848.52814,-608.11183)"
       inkscape:export-filename="/home/paolo/workspace/gthumb/data/icons/hicolor/22x22/actions/tool-adjust-contrast.png"
       inkscape:export-xdpi="2.7049181"
       inkscape:export-ydpi="2.7049181">
      <path
         inkscape:export-ydpi="2"
         inkscape:export-xdpi="2"
         inkscape:export-filename="/home/paolo/workspace/gthumb/data/icons/hicolor/16x16/actions/tool-adjust-contrast.png"
         id="path3100"
         d="m -499.07464,760.21171 0,22.59375 0,94.09375 c 8.16871,-0.76582 16.44039,-1.15625 24.8125,-1.15625 6.85393,0 13.65522,0.26585 20.375,0.78125 l 0,-93.71875 0,-22.59375 -45.1875,0 z m -220.21875,91.21875 -31.96875,31.9375 15.96875,15.96875 64.9375,64.9375 c 9.93176,-11.3417 20.86815,-21.78166 32.65625,-31.25 l -65.625,-65.625 -15.96875,-15.96875 z m 485.625,0 -15.96875,15.96875 -63.65625,63.65625 c 11.90751,9.32817 22.96149,19.65507 33.03125,30.875 l 62.59375,-62.59375 15.96875,-15.96875 -31.96875,-31.9375 z m -608.8125,252.18754 0,45.1875 22.59375,0 87.28125,0 c -0.40804,-5.8619 -0.625,-11.7548 -0.625,-17.7188 0,-9.2761 0.52192,-18.4486 1.5,-27.4687 l -88.15625,0 -22.59375,0 z m 625.6875,0 c 0.97808,9.0201 1.5,18.1926 1.5,27.4687 0,5.964 -0.21696,11.8569 -0.625,17.7188 l 82.84375,0 22.59375,0 0,-45.1875 -22.59375,0 -83.71875,0 z m -458.03125,188.9687 -60.46875,60.4688 -15.96875,15.9687 31.96875,31.9375 15.96875,-15.9688 60.28125,-60.2812 c -11.51639,-9.768 -22.16045,-20.5255 -31.78125,-32.125 z m 399.09375,2.4063 c -9.75995,11.4791 -20.51976,22.1201 -32.15625,31.75 l 58.25,58.2499 15.96875,15.9688 31.96875,-31.9375 -15.96875,-15.9687 -58.0625,-58.0625 z m -223.34375,90.2499 0,84.375 0,22.5938 45.1875,0 0,-22.5938 0,-83.9687 c -6.71971,0.5154 -13.52114,0.7813 -20.375,0.7813 -8.37233,0 -16.64358,-0.4217 -24.8125,-1.1876 z"
         style="font-size:medium;font-style:normal;font-variant:normal;font-weight:normal;font-stretch:normal;text-indent:0;text-align:start;text-decoration:none;line-height:normal;letter-spacing:normal;word-spacing:normal;text-transform:none;direction:ltr;block-progression:tb;writing-mode:lr-tb;text-anchor:start;baseline-shift:baseline;color:#000000;fill:#000000;fill-opacity:1;stroke:none;stroke-width:45.18518448;marker:none;visibility:visible;display:inline;overflow:visible;enable-background:accumulate;font-family:Sans;-inkscape-font-specification:Sans"
         inkscape:connector-curvature="0" />
      <path
         inkscape:export-ydpi="2.9603195"
         inkscape:export-xdpi="2.9603195"
         inkscape:export-filename="/home/paolo/workspace/gthumb/data/icons/hicolor/16x16/actions/tool-adjust-contrast.png"
         transform="matrix(1.5954303,0,0,1.5954303,-945.70968,100.64768)"
         d="m 438,645.86218 c 0,77.59601 -63.79942,140.5 -142.5,140.5 -78.70058,0 -142.5,-62.90399 -142.5,-140.5 0,-77.596 63.79942,-140.5 142.5,-140.5 78.70058,0 142.5,62.904 142.5,140.5 z"
         sodipodi:ry="140.5"
         sodipodi:rx="142.5"
         sodipodi:cy="645.86218"
         sodipodi:cx="295.5"
         id="path3858"
         style="fill:#000000;fill-opacity:1;stroke:none"
         sodipodi:type="arc" />
      <g
         transform="matrix(1.0752139,0,0,1.0752139,-827.16765,310.43055)"
         inkscape:export-ydpi="2"
         inkscape:export-xdpi="2"
         inkscape:export-filename="/home/paolo/workspace/gthumb/data/icons/hicolor/16x16/actions/tool-adjust-contrast.png"
         id="g3120">
        <path
           style="fill:#000000;fill-opacity:1;stroke:none"
           d="m 328.19115,937.78183 c -97.7695,0 -177.02733,-78.14546 -177.02733,-174.54274 0,-96.39729 79.25783,-174.54276 177.02733,-174.54276 z"
           id="path3860"
           inkscape:connector-curvature="0"
           sodipodi:nodetypes="cscc"
           inkscape:export-filename="/home/paolo/workspace/gthumb/data/icons/hicolor/16x16/actions/tool-adjust-contrast.png"
           inkscape:export-xdpi="2.9603195"
           inkscape:export-ydpi="2.9603195" />
        <path
           inkscape:export-ydpi="2.9603195"
           inkscape:export-xdpi="2.9603195"
           inkscape:export-filename="/home/paolo/workspace/gthumb/data/icons/hicolor/16x16/actions/tool-adjust-contrast.png"
           sodipodi:nodetypes="cscc"
           inkscape:connector-curvature="0"
           id="path3875"
           d="m 327.41579,937.78183 c 97.7695,0 177.02733,-78.14546 177.02733,-174.54274 0,-96.39729 -79.25783,-174.54276 -177.02733,-174.54276 z"
           style="fill:#ffffff;fill-opacity:1;stroke:none" />
      </g>
    </g>
  </g>
</svg>
