<?xml version="1.0" encoding="UTF-8" standalone="no"?>
<!-- Created with Inkscape (http://www.inkscape.org/) -->

<svg
   xmlns:dc="http://purl.org/dc/elements/1.1/"
   xmlns:cc="http://creativecommons.org/ns#"
   xmlns:rdf="http://www.w3.org/1999/02/22-rdf-syntax-ns#"
   xmlns:svg="http://www.w3.org/2000/svg"
   xmlns="http://www.w3.org/2000/svg"
   xmlns:sodipodi="http://sodipodi.sourceforge.net/DTD/sodipodi-0.dtd"
   xmlns:inkscape="http://www.inkscape.org/namespaces/inkscape"
   width="16"
   height="16"
   id="svg2"
   version="1.1"
   inkscape:version="0.48.4 r9939"
   sodipodi:docname="tag-symbolic.svg">
  <defs
     id="defs4" />
  <sodipodi:namedview
     id="base"
     pagecolor="#555753"
     bordercolor="#666666"
     borderopacity="1.0"
     inkscape:pageopacity="1"
     inkscape:pageshadow="2"
     inkscape:zoom="32"
     inkscape:cx="-1.4769413"
     inkscape:cy="5.3674131"
     inkscape:document-units="px"
     inkscape:current-layer="layer1"
     showgrid="true"
     inkscape:snap-grids="false"
     inkscape:window-width="1920"
     inkscape:window-height="1134"
     inkscape:window-x="0"
     inkscape:window-y="27"
     inkscape:window-maximized="1"
     showborder="true"
     fit-margin-top="0"
     fit-margin-right="0"
     fit-margin-left="0"
     fit-margin-bottom="0"
     showguides="true">
    <inkscape:grid
       type="xygrid"
       id="grid7044"
       empspacing="8"
       visible="true"
       enabled="true"
       snapvisiblegridlinesonly="true"
       originx="-31.97559px"
       originy="-816.00002px" />
  </sodipodi:namedview>
  <metadata
     id="metadata7">
    <rdf:RDF>
      <cc:Work
         rdf:about="">
        <dc:format>image/svg+xml</dc:format>
        <dc:type
           rdf:resource="http://purl.org/dc/dcmitype/StillImage" />
        <dc:title />
      </cc:Work>
    </rdf:RDF>
  </metadata>
  <g
     inkscape:label="Livello 1"
     inkscape:groupmode="layer"
     id="layer1"
     transform="translate(-31.97559,-220.36218)">
    <path
       style="fill:#bebebe;fill-opacity:1;stroke:none"
       d="M 5.59375 1.5 C 5.033904 1.508 4.487085 1.80677 4.15625 2.3125 L 4.0625 2.46875 C 3.340492 2.10458 2.422325 2.33791 1.96875 3.03125 L 1.3125 4.03125 C 0.858926 4.72461 1.033333 5.6406 1.65625 6.15625 L 1.53125 6.34375 C 1.001911 7.15292 1.222081 8.22067 2.03125 8.75 L 9.6875 13.75 C 10.496669 14.27935 11.564413 14.05918 12.09375 13.25 L 14.71875 9.21875 C 15.248087 8.40959 15.027919 7.31059 14.21875 6.78125 L 6.59375 1.78125 C 6.290313 1.58274 5.929658 1.49526 5.59375 1.5 z M 4.09375 3.84375 C 4.8876593 3.84375 5.53125 4.4873407 5.53125 5.28125 C 5.53125 6.0751593 4.8876593 6.71875 4.09375 6.71875 C 3.2998407 6.71875 2.65625 6.0751593 2.65625 5.28125 C 2.65625 4.4873407 3.2998407 3.84375 4.09375 3.84375 z "
       transform="translate(31.97559,220.36218)"
       id="path3776" />
  </g>
</svg>
