/* XPM */
static char * flip_xpm[] = {
"12 12 3 1",
" 	c None",
".	c #000000",
"+	c #ACACAC",
"     ..     ",
"    ....    ",
"   ......   ",
"    +..+++  ",
"     ..+    ",
". . .... . .",
"     ..+    ",
"     ..+    ",
"   ......   ",
"    ....++  ",
"     ..++   ",
"      ++    "};
