/* XPM */
static char * mirror_xpm[] = {
"12 12 4 1",
" 	c None",
".	c #010000",
"+	c #010101",
"@	c #ACACAC",
"     .      ",
"            ",
"     .      ",
"  +     +   ",
" ++@ .  ++  ",
"+++++++++++ ",
"+++++.+++++@",
" ++@@.@@++@@",
"  +@    +@@ ",
"   @ .   @  ",
"            ",
"     .      "};
