/* XPM */
static char * img_unknown_xpm[] = {
"48 48 114 2",
"  	c None",
". 	c #F3F3F3",
"+ 	c #EA0000",
"@ 	c #F1F1F1",
"# 	c #F2F2F2",
"$ 	c #EEEEEE",
"% 	c #EFEFEF",
"& 	c #E8E8E8",
"* 	c #EBEBEB",
"= 	c #EDEDED",
"- 	c #F0F0F0",
"; 	c #E7E7E7",
"> 	c #E2E2E2",
", 	c #DDDDDD",
"' 	c #DFDFDF",
") 	c #E5E5E5",
"! 	c #EAEAEA",
"~ 	c #E90101",
"{ 	c #DCDCDC",
"] 	c #D4D4D4",
"^ 	c #CCCCCC",
"/ 	c #C7C7C7",
"( 	c #C4C4C4",
"_ 	c #D0D0D0",
": 	c #D7D7D7",
"< 	c #E80202",
"[ 	c #D5D5D5",
"} 	c #CBCBCB",
"| 	c #C3C3C3",
"1 	c #BDBDBD",
"2 	c #B9B9B9",
"3 	c #B8B8B8",
"4 	c #D1D1D1",
"5 	c #E6E6E6",
"6 	c #E70303",
"7 	c #BABABA",
"8 	c #B4B4B4",
"9 	c #B2B2B2",
"0 	c #B7B7B7",
"a 	c #B6B6B6",
"b 	c #C2C2C2",
"c 	c #DEDEDE",
"d 	c #E60404",
"e 	c #AEAEAE",
"f 	c #ABABAB",
"g 	c #AFAFAF",
"h 	c #BFBFBF",
"i 	c #AAAAAA",
"j 	c #ECECEC",
"k 	c #E60505",
"l 	c #C5C5C5",
"m 	c #A6A6A6",
"n 	c #A9A9A9",
"o 	c #B3B3B3",
"p 	c #D3D3D3",
"q 	c #A3A3A3",
"r 	c #ACACAC",
"s 	c #CECECE",
"t 	c #ADADAD",
"u 	c #CACACA",
"v 	c #D8D8D8",
"w 	c #E0E0E0",
"x 	c #E50506",
"y 	c #A1A1A1",
"z 	c #C6C6C6",
"A 	c #E1E1E1",
"B 	c #E40607",
"C 	c #A0A0A0",
"D 	c #A2A2A2",
"E 	c #C0C0C0",
"F 	c #E3E3E3",
"G 	c #E30708",
"H 	c #C9C9C9",
"I 	c #D2D2D2",
"J 	c #E20809",
"K 	c #A8A8A8",
"L 	c #E9E9E9",
"M 	c #DBDBDB",
"N 	c #D6D6D6",
"O 	c #DADADA",
"P 	c #E2090A",
"Q 	c #E4E4E4",
"R 	c #E10A0B",
"S 	c #A5A5A5",
"T 	c #E00A0C",
"U 	c #BEBEBE",
"V 	c #A4A4A4",
"W 	c #DF0B0D",
"X 	c #CFCFCF",
"Y 	c #DE0C0E",
"Z 	c #BBBBBB",
"` 	c #DE0D0E",
" .	c #D9D9D9",
"..	c #B1B1B1",
"+.	c #C1C1C1",
"@.	c #DD0E0F",
"#.	c #A7A7A7",
"$.	c #DC0F10",
"%.	c #B5B5B5",
"&.	c #CDCDCD",
"*.	c #DB1011",
"=.	c #B0B0B0",
"-.	c #DA1012",
";.	c #C8C8C8",
">.	c #D91113",
",.	c #D91214",
"'.	c #D51518",
").	c #D51619",
"!.	c #D4171A",
"~.	c #D3181B",
"{.	c #D2191C",
"].	c #D11A1D",
"^.	c #D01A1D",
"/.	c #BCBCBC",
". . . . . . . . . . . . . . . . . . . . . . . . . . . . . . . . . . . . . . . . . . . . . . . . ",
". . . . . . . . . . . . . . . . . . . . . . . . . . . . . . . . . . . . . . . . . . . . . . . . ",
". . . . . . . . . . . . . . . . . . . . . . . . . . . . . . . . . . . . . . . . . . . . . . . . ",
". . . . . . . . . . . . . . . . . . . . . . . . . . . . . . . . . . . . . . . . . . . . . . . . ",
". . . . . . . . . . . . . . . . . . . . . + + + + + + + @ @ @ # # . . . . . . . . . . . . . . . ",
". . . . . . . . . . . . . . . . . . . + + + + + + + + + + + + $ % @ @ # . . . . . . . . . . . . ",
". . . . . . . . . . . . . . . . . + + + + + + + + + + + + + + + & * = - @ # . . . . . . . . . . ",
". . . . . . . . . . . . . . . . + + + + + + ; > , + + + + + + + + ' ) ! $ - # . . . . . . . . . ",
". . . . . . . . . . . . . . . ~ ~ ~ ~ ~ ~ ~ { ] ^ / ( ~ ~ ~ ~ ~ ~ _ : ' ; = - # . . . . . . . . ",
". . . . . . . . . . . . . . . < < < < < < [ } | 1 2 3 < < < < < < < / 4 , 5 = @ . . . . . . . . ",
". . . . . . . . . . . . . . 6 6 6 6 6 6 6 ( 7 8 9 8 0 2 6 6 6 6 6 6 a b _ c & % # . . . . . . . ",
". . . . . . . . . . . . . . d d d d d d b a e f g a h ( d d d d d d i a ( [ > j @ . . . . . . . ",
". . . . . . . . . . . . . . . k k k k l a f m n o h } p k k k k k k q r 7 } , & % # . . . . . . ",
". . . . . . . . . . . . . . # - ! c s 1 e m m t 7 u v w x x x x x x y m o l : ) $ @ . . . . . . ",
". . . . . . . . . . . . . . # % & { } 7 e n r a z [ A & B B B B B B C D e E p F = @ . . . . . . ",
". . . . . . . . . . . . . . # % & c s E a 8 3 | 4 c & G G G G G G G C D r 1 4 A j @ . . . . . . ",
". . . . . . . . . . . . . . # - * > : } l ( H I , ; = J J J J J J K y D r 1 4 A j @ . . . . . . ",
". . . . . . . . . . . . . . . @ $ L A M N N O ' ; = P P P P P P P K D q e h I > = @ . . . . . . ",
". . . . . . . . . . . . . . . # @ $ ! ; Q Q 5 ! $ R R R R R R R 8 m D S 9 | N Q = @ . . . . . . ",
". . . . . . . . . . . . . . . . # @ - $ = = $ - T T T T T T T U e V D n 0 H O ; $ # . . . . . . ",
". . . . . . . . . . . . . . . . . . # # @ @ # W W W W W W W / a n D S g U X ' ! - # . . . . . . ",
". . . . . . . . . . . . . . . . . . . . . Y Y Y Y Y Y Y Y } Z e S V i a / v Q = @ . . . . . . . ",
". . . . . . . . . . . . . . . . . . . ` ` ` ` ` ` ` `  .^ U ..K S n o +.4 ' L % # . . . . . . . ",
". . . . . . . . . . . . . . . . . . @.@.@.@.@.@.@.w : } U o f #.i o h s { 5 = @ . . . . . . . . ",
". . . . . . . . . . . . . . . . . . $.$.$.$.$.> M I H 1 8 t f t %.E &.O ) j - # . . . . . . . . ",
". . . . . . . . . . . . . . . . . . *.*.*.*.' N } | 7 8 =.=.o 7 ( X M Q * - # . . . . . . . . . ",
". . . . . . . . . . . . . . . . . . -.-.-.w ] ;.1 a o o a 7 b u ] c ) j - # . . . . . . . . . . ",
". . . . . . . . . . . . . . . . . >.>.>.>. .u Z o ..8 7 b u p M > & = - # . . . . . . . . . . . ",
". . . . . . . . . . . . . . . . . ,.,.,.,.p b a ..8 1 ;.I M A ; * % @ # . . . . . . . . . . . . ",
". . . . . . . . . . . . . . . . . . - ! ' X U 8 8 1 u N ' 5 * $ - # . . . . . . . . . . . . . . ",
". . . . . . . . . . . . . . . . . # - L , &.U 0 Z / N A L $ - @ . . . . . . . . . . . . . . . . ",
". . . . . . . . . . . . . . . . . # % & , s | h l 4 c & $ @ # . . . . . . . . . . . . . . . . . ",
". . . . . . . . . . . . . . . . '.'.'.'.'.p u H X M ) = @ . . . . . . . . . . . . . . . . . . . ",
". . . . . . . . . . . . . . . ).).).).).).).4 I v A L % # . . . . . . . . . . . . . . . . . . . ",
". . . . . . . . . . . . . . !.!.!.!.!.!.!.!.I ] O > ! % # . . . . . . . . . . . . . . . . . . . ",
". . . . . . . . . . . . . . ~.~.~.~.~.~.~.~.u } p , 5 = @ . . . . . . . . . . . . . . . . . . . ",
". . . . . . . . . . . . . . {.{.{.{.{.{.{.{.7 1 / ] w ! - # . . . . . . . . . . . . . . . . . . ",
". . . . . . . . . . . . . . ].].].].].].].e f =.7 u O 5 $ # . . . . . . . . . . . . . . . . . . ",
". . . . . . . . . . . . . . # ^.^.^.^.^.f q D #.o ( N Q = @ . . . . . . . . . . . . . . . . . . ",
". . . . . . . . . . . . . . @ = Q N | 9 S C C S 9 | N Q = @ . . . . . . . . . . . . . . . . . . ",
". . . . . . . . . . . . . . @ = Q N ( 8 K q V f 0 H  .5 $ # . . . . . . . . . . . . . . . . . . ",
". . . . . . . . . . . . . . # $ ; O u /.o e =.0 | I ' ! - # . . . . . . . . . . . . . . . . . . ",
". . . . . . . . . . . . . . # - ! A N u | h +.;.4 , ; = @ . . . . . . . . . . . . . . . . . . . ",
". . . . . . . . . . . . . . . @ $ & A O ] I ]  .' ; = - # . . . . . . . . . . . . . . . . . . . ",
". . . . . . . . . . . . . . . # @ $ ! 5 Q > F 5 ! = - # . . . . . . . . . . . . . . . . . . . . ",
". . . . . . . . . . . . . . . . # @ - $ = = = $ - @ # . . . . . . . . . . . . . . . . . . . . . ",
". . . . . . . . . . . . . . . . . . # # @ @ @ # # . . . . . . . . . . . . . . . . . . . . . . . ",
". . . . . . . . . . . . . . . . . . . . . . . . . . . . . . . . . . . . . . . . . . . . . . . . "};
