<?xml version="1.0" encoding="UTF-8"?>
<svg xmlns="http://www.w3.org/2000/svg" height="16px" viewBox="0 0 16 16" width="16px"><path d="m 4.03125 1.003906 c -1.660156 0 -3.03125 1.371094 -3.03125 3.035156 v 7.917969 c 0 1.664063 1.371094 3.03125 3.03125 3.03125 h 4.96875 c 0.535156 0 0.964844 -0.433593 0.964844 -0.96875 v -0.066406 c 0 -0.53125 -0.429688 -0.964844 -0.964844 -0.964844 h -4.96875 c -0.585938 0 -1.03125 -0.441406 -1.03125 -1.03125 v -7.917969 c 0 -0.589843 0.445312 -1.035156 1.03125 -1.035156 h 4.96875 c 0.535156 0 0.964844 -0.429687 0.964844 -0.964844 v -0.066406 c 0 -0.535156 -0.429688 -0.96875 -0.964844 -0.96875 z m 4.96875 2.996094 v 1 c 0 0.257812 0.128906 0.527344 0.3125 0.71875 l 1.28125 1.28125 h -4.59375 v 2 h 4.59375 l -1.28125 1.28125 c -0.183594 0.191406 -0.3125 0.410156 -0.3125 0.71875 v 1 h 1 c 0.308594 0 0.550781 -0.089844 0.75 -0.28125 l 3.65625 -3.71875 l -3.65625 -3.71875 c -0.199219 -0.191406 -0.441406 -0.28125 -0.75 -0.28125 z m 0 0" fill="#222222"/></svg>
