<?xml version="1.0" encoding="UTF-8"?>
<svg xmlns="http://www.w3.org/2000/svg" height="16px" viewBox="0 0 16 16" width="16px"><g fill="#241f31"><path d="m 16 7.5 c 0 -0.277344 -0.222656 -0.5 -0.5 -0.5 h -15 c -0.277344 0 -0.5 0.222656 -0.5 0.5 s 0.222656 0.5 0.5 0.5 h 15 c 0.277344 0 0.5 -0.222656 0.5 -0.5 z m 0 0"/><path d="m 15 4.835938 c 0 -1.015626 -0.820312 -1.835938 -1.835938 -1.835938 h -2.332031 c -1.011719 0 -1.832031 0.820312 -1.832031 1.835938 v 1.164062 h 1.996094 v -1 h 2.003906 v 1 h 2 z m 0 4.164062 h -2 v 1 h -2.003906 v -1 h -1.996094 v 1.167969 c 0 1.011719 0.820312 1.832031 1.832031 1.832031 h 2.332031 c 1.015626 0 1.835938 -0.820312 1.835938 -1.832031 z m -7 -6.164062 c 0 -1.015626 -0.820312 -1.835938 -1.835938 -1.835938 h -2.332031 c -1.011719 0 -1.832031 0.820312 -1.832031 1.835938 v 3.164062 h 1.996094 v -3 h 2.003906 v 3 h 2 z m 0 6.164062 h -2 v 3 h -2.003906 v -3 h -1.996094 v 3.167969 c 0 1.011719 0.820312 1.832031 1.832031 1.832031 h 2.332031 c 1.015626 0 1.835938 -0.820312 1.835938 -1.832031 z m 0 0"/></g></svg>
