<?xml version="1.0" encoding="UTF-8" standalone="no"?>
<svg
   height="16px"
   viewBox="0 0 16 16"
   width="16px"
   version="1.1"
   id="svg1"
   sodipodi:docname="gth-page-orientation-landscape-symbolic.svg"
   inkscape:version="1.4.2 (ebf0e940d0, 2025-05-08)"
   xmlns:inkscape="http://www.inkscape.org/namespaces/inkscape"
   xmlns:sodipodi="http://sodipodi.sourceforge.net/DTD/sodipodi-0.dtd"
   xmlns="http://www.w3.org/2000/svg"
   xmlns:svg="http://www.w3.org/2000/svg">
  <defs
     id="defs1" />
  <sodipodi:namedview
     id="namedview1"
     pagecolor="#ffffff"
     bordercolor="#000000"
     borderopacity="0.25"
     inkscape:showpageshadow="2"
     inkscape:pageopacity="0.0"
     inkscape:pagecheckerboard="0"
     inkscape:deskcolor="#d1d1d1"
     inkscape:zoom="69.1875"
     inkscape:cx="8"
     inkscape:cy="8"
     inkscape:window-width="2560"
     inkscape:window-height="1403"
     inkscape:window-x="0"
     inkscape:window-y="0"
     inkscape:window-maximized="1"
     inkscape:current-layer="svg1" />
  <path
     style="baseline-shift:baseline;display:inline;overflow:visible;vector-effect:none;stroke-linecap:round;enable-background:accumulate;stop-color:#000000;stop-opacity:1;opacity:1"
     d="m 3.0820313,2.0449219 c -1.6786228,0 -3.0585938,1.379971 -3.0585938,3.0585937 v 6.0351564 c 0,1.678623 1.379971,3.058594 3.0585938,3.058594 h 9.8496097 c 1.678622,0 3.058593,-1.379971 3.058593,-3.058594 V 5.1035156 c 0,-1.6786227 -1.379971,-3.0585937 -3.058593,-3.0585937 z m 0,1.8320312 h 9.8496097 c 0.694803,0 1.226562,0.5317589 1.226562,1.2265625 v 6.0351564 c 0,0.694803 -0.531759,1.224609 -1.226562,1.224609 H 3.0820313 c -0.6948036,0 -1.2246094,-0.529806 -1.2246094,-1.224609 V 5.1035156 c 0,-0.6948036 0.5298058,-1.2265625 1.2246094,-1.2265625 z"
     id="rect1" />
</svg>
