<?xml version="1.0" encoding="UTF-8" standalone="no"?>
<svg
   height="16px"
   viewBox="0 0 16 16"
   width="16px"
   version="1.1"
   id="svg2"
   sodipodi:docname="gth-display-symbolic.svg"
   inkscape:version="1.4.3 (0d15f75042, 2025-12-25)"
   xmlns:inkscape="http://www.inkscape.org/namespaces/inkscape"
   xmlns:sodipodi="http://sodipodi.sourceforge.net/DTD/sodipodi-0.dtd"
   xmlns="http://www.w3.org/2000/svg"
   xmlns:svg="http://www.w3.org/2000/svg">
  <defs
     id="defs2" />
  <sodipodi:namedview
     id="namedview2"
     pagecolor="#ffffff"
     bordercolor="#666666"
     borderopacity="1.0"
     inkscape:showpageshadow="2"
     inkscape:pageopacity="0.0"
     inkscape:pagecheckerboard="0"
     inkscape:deskcolor="#d1d1d1"
     inkscape:zoom="35.90625"
     inkscape:cx="8.0765883"
     inkscape:cy="8.6196693"
     inkscape:window-width="2560"
     inkscape:window-height="1403"
     inkscape:window-x="0"
     inkscape:window-y="0"
     inkscape:window-maximized="1"
     inkscape:current-layer="svg2" />
  <g
     fill="#222222"
     id="g2"
     transform="matrix(0.99610879,0,0,0.99610879,0.03112963,0.51773227)"
     style="stroke-width:1.00391">
    <path
       d="M 3,1 C 1.339844,1 0,2.339844 0,4 v 7 c 0,1.664062 1.339844,3 3,3 h 10 c 1.664062,0 3,-1.335938 3,-3 V 4 C 16,2.339844 14.664062,1 13,1 Z m 0,2 h 10 c 0.554688,0 1,0.445312 1,1 v 7 c 0,0.554688 -0.445312,1 -1,1 H 3 C 2.449219,12 2,11.554688 2,11 V 4 C 2,3.445312 2.449219,3 3,3 Z m 0,0"
       id="path1"
       style="stroke-width:1.00391" />
  </g>
  <path
     id="rect3"
     style="fill:#222222;stroke-width:1;stroke-linecap:round;stroke-linejoin:round"
     d="m 5.0951908,5.8592012 h 5.8096182 c 0.203561,0 0.367438,0.1638776 0.367438,0.3674386 v 3.5467207 c 0,0.203561 -0.163877,0.3674385 -0.367438,0.3674385 H 5.0951908 c -0.2035609,0 -0.3674385,-0.1638775 -0.3674385,-0.3674385 V 6.2266398 c 0,-0.203561 0.1638776,-0.3674386 0.3674385,-0.3674386 z" />
</svg>
