<?xml version="1.0" encoding="UTF-8" standalone="no"?>
<svg
   height="15.976562px"
   viewBox="0 0 16 15.976562"
   width="16px"
   version="1.1"
   id="svg1"
   sodipodi:docname="gth-delete-metadata-symbolic.svg"
   inkscape:version="1.4.2 (ebf0e940d0, 2025-05-08)"
   xmlns:inkscape="http://www.inkscape.org/namespaces/inkscape"
   xmlns:sodipodi="http://sodipodi.sourceforge.net/DTD/sodipodi-0.dtd"
   xmlns="http://www.w3.org/2000/svg"
   xmlns:svg="http://www.w3.org/2000/svg">
  <defs
     id="defs1" />
  <sodipodi:namedview
     id="namedview1"
     pagecolor="#ffffff"
     bordercolor="#666666"
     borderopacity="1.0"
     inkscape:showpageshadow="2"
     inkscape:pageopacity="0.0"
     inkscape:pagecheckerboard="0"
     inkscape:deskcolor="#d1d1d1"
     inkscape:zoom="50.853601"
     inkscape:cx="8.0230307"
     inkscape:cy="7.7575627"
     inkscape:window-width="2560"
     inkscape:window-height="1403"
     inkscape:window-x="0"
     inkscape:window-y="0"
     inkscape:window-maximized="1"
     inkscape:current-layer="svg1"
     showgrid="false" />
  <path
     id="path1"
     d="M 3.1210938 1.9765625 C 1.9453118 1.9765625 1 2.9218753 1 4.0976562 L 1 10.855469 C 1 12.03125 1.9453117 12.976563 3.1210938 12.976562 L 9 12.976562 L 13 15.976562 L 13 12.964844 C 14.117188 12.902344 15 11.988281 15 10.855469 L 15 4.0976562 C 15 2.9218753 14.054688 1.9765625 12.878906 1.9765625 L 3.1210938 1.9765625 z M 5.2734375 4.0253906 A 0.75 0.75 0 0 1 5.8046875 4.2460938 L 8 6.4414062 L 10.195312 4.2460938 A 0.75 0.75 0 0 1 10.726562 4.0253906 A 0.75 0.75 0 0 1 11.257812 4.2460938 A 0.75 0.75 0 0 1 11.257812 5.3066406 L 9.0625 7.5039062 L 11.257812 9.6992188 A 0.75 0.75 0 0 1 11.257812 10.759766 A 0.75 0.75 0 0 1 10.195312 10.759766 L 8 8.5644531 L 5.8046875 10.759766 A 0.75 0.75 0 0 1 4.7421875 10.759766 A 0.75 0.75 0 0 1 4.7421875 9.6992188 L 6.9375 7.5039062 L 4.7421875 5.3066406 A 0.75 0.75 0 0 1 4.7421875 4.2460938 A 0.75 0.75 0 0 1 5.2734375 4.0253906 z "
     style="fill:#616161;fill-opacity:1" />
</svg>
