<?xml version="1.0" encoding="UTF-8"?>
<svg xmlns="http://www.w3.org/2000/svg" height="16px" viewBox="0 0 16 16" width="16px">
  <path d="M 5.5253906 0.90820312 L 5.5136719 0.921875 L 5.4726562 0.921875 L 5.4726562 0.96875 L 4.625 1.8105469 L 3.7773438 0.96289062 L 3.7773438 0.921875 L 3.7363281 0.921875 L 3.7304688 0.91601562 L 3.7167969 0.921875 L 2.0800781 0.921875 L 2.0800781 2.5664062 L 2.046875 2.5996094 L 2.9414062 3.4863281 L 2.1132812 4.3144531 L 2.0800781 4.3144531 L 2.0800781 4.3476562 L 2.046875 4.3808594 L 2.0800781 4.4082031 L 2.0800781 6.0117188 L 3.6835938 6.0117188 L 3.7304688 6.0585938 L 4.625 5.1640625 L 5.4726562 6.0058594 L 5.4726562 6.0117188 L 5.4804688 6.0117188 L 5.5253906 6.0585938 L 5.5722656 6.0117188 L 7.1699219 6.0117188 L 7.1699219 4.4140625 L 7.203125 4.3808594 L 7.1699219 4.3476562 L 7.1699219 4.3144531 L 7.1367188 4.3144531 L 6.3085938 3.4863281 L 7.203125 2.5996094 L 7.1699219 2.5664062 L 7.1699219 0.921875 L 5.5332031 0.921875 L 5.5253906 0.90820312 z M 12.259766 0.90820312 L 12.246094 0.921875 L 12.207031 0.921875 L 12.207031 0.96875 L 11.357422 1.8105469 L 10.509766 0.96289062 L 10.509766 0.921875 L 10.470703 0.921875 L 10.462891 0.91601562 L 10.449219 0.921875 L 8.8125 0.921875 L 8.8125 2.5664062 L 8.7792969 2.5996094 L 9.6738281 3.4863281 L 8.8457031 4.3144531 L 8.8125 4.3144531 L 8.8125 4.3476562 L 8.7792969 4.3808594 L 8.8125 4.4082031 L 8.8125 6.0117188 L 10.416016 6.0117188 L 10.462891 6.0585938 L 11.357422 5.1640625 L 12.207031 6.0058594 L 12.207031 6.0117188 L 12.212891 6.0117188 L 12.259766 6.0585938 L 12.304688 6.0117188 L 13.902344 6.0117188 L 13.902344 4.4082031 L 13.935547 4.3808594 L 13.902344 4.3476562 L 13.902344 4.3144531 L 13.869141 4.3144531 L 13.041016 3.4863281 L 13.935547 2.5996094 L 13.902344 2.5664062 L 13.902344 0.921875 L 12.265625 0.921875 L 12.259766 0.90820312 z M 2.0527344 8.6191406 L 2.0527344 10.316406 L 3.75 10.316406 L 3.75 13.146484 C 3.75 14.398976 4.8833831 15.40625 6.2949219 15.40625 C 7.6998342 15.40625 8.8398438 14.398976 8.8398438 13.146484 L 8.8398438 10.316406 L 13.929688 10.316406 L 13.929688 8.6191406 L 2.0527344 8.6191406 z " fill="#222222" />
</svg>
