<?xml version="1.0" encoding="UTF-8" standalone="no"?>
<svg
   height="16px"
   viewBox="0 0 16 16"
   width="16px"
   version="1.1"
   id="svg1"
   sodipodi:docname="gth-page-orientation-portrait-symbolic.svg"
   inkscape:version="1.4.2 (ebf0e940d0, 2025-05-08)"
   xmlns:inkscape="http://www.inkscape.org/namespaces/inkscape"
   xmlns:sodipodi="http://sodipodi.sourceforge.net/DTD/sodipodi-0.dtd"
   xmlns="http://www.w3.org/2000/svg"
   xmlns:svg="http://www.w3.org/2000/svg">
  <defs
     id="defs1" />
  <sodipodi:namedview
     id="namedview1"
     pagecolor="#ffffff"
     bordercolor="#000000"
     borderopacity="0.25"
     inkscape:showpageshadow="2"
     inkscape:pageopacity="0.0"
     inkscape:pagecheckerboard="0"
     inkscape:deskcolor="#d1d1d1"
     inkscape:zoom="34.59375"
     inkscape:cx="7.9927733"
     inkscape:cy="7.8771454"
     inkscape:window-width="2560"
     inkscape:window-height="1403"
     inkscape:window-x="0"
     inkscape:window-y="0"
     inkscape:window-maximized="1"
     inkscape:current-layer="svg1" />
  <path
     style="baseline-shift:baseline;display:inline;overflow:visible;opacity:1;vector-effect:none;stroke-linecap:round;enable-background:accumulate;stop-color:#000000;stop-opacity:1"
     d="m 14.083008,3.1962895 c 0,-1.6786228 -1.379971,-3.0585938 -3.058594,-3.0585938 H 4.9892577 c -1.678623,0 -3.058594,1.379971 -3.058594,3.0585938 v 9.8496095 c 0,1.678622 1.379971,3.058593 3.058594,3.058593 h 6.0351563 c 1.678623,0 3.058594,-1.379971 3.058594,-3.058593 z m -1.832031,0 v 9.8496095 c 0,0.694803 -0.531759,1.226562 -1.226563,1.226562 H 4.9892577 c -0.694803,0 -1.224609,-0.531759 -1.224609,-1.226562 V 3.1962895 c 0,-0.6948036 0.529806,-1.2246094 1.224609,-1.2246094 h 6.0351563 c 0.694804,0 1.226563,0.5298058 1.226563,1.2246094 z"
     id="rect1" />
</svg>
