<?xml version="1.0" encoding="UTF-8" standalone="no"?>
<svg
   height="16px"
   viewBox="0 0 16 16"
   width="16px"
   version="1.1"
   id="svg2"
   sodipodi:docname="gth-options-symbolic.svg"
   inkscape:version="1.4.2 (ebf0e940d0, 2025-05-08)"
   xmlns:inkscape="http://www.inkscape.org/namespaces/inkscape"
   xmlns:sodipodi="http://sodipodi.sourceforge.net/DTD/sodipodi-0.dtd"
   xmlns="http://www.w3.org/2000/svg"
   xmlns:svg="http://www.w3.org/2000/svg">
  <defs
     id="defs2" />
  <sodipodi:namedview
     id="namedview2"
     pagecolor="#ffffff"
     bordercolor="#666666"
     borderopacity="1.0"
     inkscape:showpageshadow="2"
     inkscape:pageopacity="0.0"
     inkscape:pagecheckerboard="0"
     inkscape:deskcolor="#d1d1d1"
     inkscape:zoom="35.90625"
     inkscape:cx="4.4003481"
     inkscape:cy="7.4221062"
     inkscape:window-width="2560"
     inkscape:window-height="1403"
     inkscape:window-x="0"
     inkscape:window-y="0"
     inkscape:window-maximized="1"
     inkscape:current-layer="svg2" />
  <path
     id="path5"
     style="baseline-shift:baseline;display:inline;overflow:visible;vector-effect:none;fill-rule:evenodd;stroke-linecap:round;enable-background:accumulate;stop-color:#000000;stop-opacity:1;opacity:1"
     d="M 11.236328 0.49023438 C 9.7655131 0.49023438 8.4868753 1.3743703 7.9101562 2.6367188 L 2.6582031 2.6367188 A 1.5 1.5 0 0 0 1.1582031 4.1367188 A 1.5 1.5 0 0 0 2.6582031 5.6367188 L 7.9101562 5.6367188 C 8.4868007 6.8998093 9.7653804 7.7851562 11.236328 7.7851562 C 13.241046 7.7851562 14.888672 6.1406873 14.888672 4.1367188 C 14.888672 2.1327502 13.241046 0.49023438 11.236328 0.49023438 z M 11.236328 2.4902344 C 12.16228 2.4902344 12.888672 3.2157481 12.888672 4.1367188 C 12.888672 5.0576896 12.16228 5.7851562 11.236328 5.7851562 C 10.310377 5.7851564 9.5839844 5.0576896 9.5839844 4.1367188 C 9.5839844 3.215748 10.310377 2.4902344 11.236328 2.4902344 z " />
  <path
     id="path1"
     style="baseline-shift:baseline;display:inline;overflow:visible;vector-effect:none;fill:#222222;fill-opacity:0.34902;fill-rule:evenodd;stroke-linecap:round;enable-background:accumulate;stop-color:#000000;stop-opacity:1;opacity:1"
     d="M 8.1367188 10.574219 C 8.3459687 11.032563 8.4628906 11.540648 8.4628906 12.074219 C 8.4628906 12.60779 8.3459688 13.115875 8.1367188 13.574219 L 13.388672 13.574219 A 1.5 1.5 0 0 0 14.888672 12.074219 A 1.5 1.5 0 0 0 13.388672 10.574219 L 8.1367188 10.574219 z " />
  <path
     style="baseline-shift:baseline;display:inline;overflow:visible;vector-effect:none;stroke-linecap:round;stroke-linejoin:round;enable-background:accumulate;stop-color:#000000;stop-opacity:1;opacity:1"
     d="m 4.8105469,8.4257813 c -2.0047183,0 -3.6523438,1.6444687 -3.6523438,3.6484377 0,2.003968 1.6476255,3.648437 3.6523438,3.648437 2.0047182,0 3.6523437,-1.644469 3.6523437,-3.648437 0,-2.003969 -1.6476255,-3.6484377 -3.6523437,-3.6484377 z m 0,1.9999997 c 0.9259515,0 1.6523437,0.727467 1.6523437,1.648438 0,0.92097 -0.7263922,1.648437 -1.6523437,1.648437 -0.9259515,0 -1.6523438,-0.727467 -1.6523438,-1.648437 0,-0.920971 0.7263923,-1.648438 1.6523438,-1.648438 z"
     id="ellipse1" />
</svg>
