<?xml version="1.0" encoding="UTF-8" standalone="no"?>
<svg
   height="16px"
   viewBox="0 0 16 16"
   width="16px"
   version="1.1"
   id="svg2"
   sodipodi:docname="gth-options-symbolic.svg"
   inkscape:version="1.4.2 (ebf0e940d0, 2025-05-08)"
   xmlns:inkscape="http://www.inkscape.org/namespaces/inkscape"
   xmlns:sodipodi="http://sodipodi.sourceforge.net/DTD/sodipodi-0.dtd"
   xmlns="http://www.w3.org/2000/svg"
   xmlns:svg="http://www.w3.org/2000/svg">
  <defs
     id="defs2" />
  <sodipodi:namedview
     id="namedview2"
     pagecolor="#ffffff"
     bordercolor="#666666"
     borderopacity="1.0"
     inkscape:showpageshadow="2"
     inkscape:pageopacity="0.0"
     inkscape:pagecheckerboard="0"
     inkscape:deskcolor="#d1d1d1"
     inkscape:zoom="25.389553"
     inkscape:cx="4.2931044"
     inkscape:cy="6.5972016"
     inkscape:window-width="2560"
     inkscape:window-height="1403"
     inkscape:window-x="0"
     inkscape:window-y="0"
     inkscape:window-maximized="1"
     inkscape:current-layer="svg2" />
  <path
     d="m 4.492188,1 c -1.9375,0 -3.5,1.5625 -3.5,3.5 0,1.9375 1.5625,3.5 3.5,3.5 h 7 c 1.941406,0 3.5,-1.5625 3.5,-3.5 0,-1.9375 -1.558594,-3.5 -3.5,-3.5 z m 7,1 c 1.386718,0 2.5,1.113281 2.5,2.5 0,1.382812 -1.113282,2.5 -2.5,2.5 -1.382813,0 -2.5,-1.117188 -2.5,-2.5 0,-1.386719 1.117187,-2.5 2.5,-2.5 z m 0,0"
     id="path1"
     style="fill:#222222" />
  <path
     d="m 4.492188,9 c -1.9375,0 -3.5,1.5625 -3.5,3.5 0,1.9375 1.5625,3.5 3.5,3.5 h 7 c 1.941406,0 3.5,-1.5625 3.5,-3.5 0,-1.9375 -1.558594,-3.5 -3.5,-3.5 z m 0,1 c 1.386718,0 2.5,1.113281 2.5,2.5 0,1.382812 -1.113282,2.5 -2.5,2.5 -1.382813,0 -2.5,-1.117188 -2.5,-2.5 0,-1.386719 1.117187,-2.5 2.5,-2.5 z m 0,0"
     fill-opacity="0.34902"
     id="path2"
     style="fill:#222222" />
</svg>
