<?xml version="1.0" encoding="UTF-8" standalone="no"?>
<!-- Created with Inkscape (http://www.inkscape.org/) -->

<svg
   width="16"
   height="16"
   id="svg2"
   version="1.1"
   inkscape:version="1.4.2 (ebf0e940d0, 2025-05-08)"
   sodipodi:docname="gth-curves-symbolic.svg"
   shape-rendering="crispEdges"
   xmlns:inkscape="http://www.inkscape.org/namespaces/inkscape"
   xmlns:sodipodi="http://sodipodi.sourceforge.net/DTD/sodipodi-0.dtd"
   xmlns="http://www.w3.org/2000/svg"
   xmlns:svg="http://www.w3.org/2000/svg"
   xmlns:rdf="http://www.w3.org/1999/02/22-rdf-syntax-ns#"
   xmlns:cc="http://creativecommons.org/ns#"
   xmlns:dc="http://purl.org/dc/elements/1.1/">
  <defs
     id="defs4">
    <marker
       inkscape:stockid="DiamondS"
       orient="auto"
       refY="0.0"
       refX="0.0"
       id="DiamondS"
       style="overflow:visible">
      <path
         id="path8477"
         d="M 0,-7.0710768 L -7.0710894,0 L 0,7.0710589 L 7.0710462,0 L 0,-7.0710768 z "
         style="fill-rule:evenodd;stroke:#000000;stroke-width:1.0pt"
         transform="scale(0.2)" />
    </marker>
    <marker
       inkscape:stockid="Arrow2Send"
       orient="auto"
       refY="0.0"
       refX="0.0"
       id="Arrow2Send"
       style="overflow:visible;">
      <path
         id="path8425"
         style="fill-rule:evenodd;stroke-width:0.62500000;stroke-linejoin:round;"
         d="M 8.7185878,4.0337352 L -2.2072895,0.016013256 L 8.7185884,-4.0017078 C 6.9730900,-1.6296469 6.9831476,1.6157441 8.7185878,4.0337352 z "
         transform="scale(0.3) rotate(180) translate(-2.3,0)" />
    </marker>
    <marker
       inkscape:stockid="Arrow1Lend"
       orient="auto"
       refY="0.0"
       refX="0.0"
       id="Arrow1Lend"
       style="overflow:visible;">
      <path
         id="path8395"
         d="M 0.0,0.0 L 5.0,-5.0 L -12.5,0.0 L 5.0,5.0 L 0.0,0.0 z "
         style="fill-rule:evenodd;stroke:#000000;stroke-width:1.0pt;"
         transform="scale(0.8) rotate(180) translate(12.5,0)" />
    </marker>
    <linearGradient
       id="linearGradient3946">
      <stop
         id="stop3948"
         offset="0"
         style="stop-color:#000000;stop-opacity:0.74698794;" />
      <stop
         id="stop3950"
         offset="1"
         style="stop-color:#000000;stop-opacity:0.02409638;" />
    </linearGradient>
    <linearGradient
       id="linearGradient3830-9">
      <stop
         style="stop-color:#000000;stop-opacity:0.74698794;"
         offset="0"
         id="stop3832-7" />
      <stop
         style="stop-color:#000000;stop-opacity:0.02409638;"
         offset="1"
         id="stop3834-5" />
    </linearGradient>
    <linearGradient
       id="linearGradient3984">
      <stop
         style="stop-color:#f4deba;stop-opacity:1;"
         offset="0"
         id="stop3986" />
      <stop
         style="stop-color:#de9625;stop-opacity:0;"
         offset="1"
         id="stop3988" />
    </linearGradient>
  </defs>
  <sodipodi:namedview
     id="base"
     pagecolor="#555753"
     bordercolor="#666666"
     borderopacity="1.0"
     inkscape:pageopacity="1"
     inkscape:pageshadow="2"
     inkscape:zoom="45.254834"
     inkscape:cx="5.5684659"
     inkscape:cy="10.374582"
     inkscape:document-units="px"
     inkscape:current-layer="layer1"
     showgrid="true"
     inkscape:snap-grids="true"
     inkscape:window-width="2560"
     inkscape:window-height="1403"
     inkscape:window-x="0"
     inkscape:window-y="0"
     inkscape:window-maximized="1"
     showborder="false"
     fit-margin-top="0"
     fit-margin-right="0"
     fit-margin-left="0"
     fit-margin-bottom="0"
     showguides="false"
     inkscape:guide-bbox="true"
     borderlayer="false"
     inkscape:showpageshadow="true"
     inkscape:pagecheckerboard="0"
     inkscape:deskcolor="#d1d1d1">
    <inkscape:grid
       type="xygrid"
       id="grid7044"
       empspacing="8"
       visible="true"
       enabled="true"
       snapvisiblegridlinesonly="false"
       originx="-31.97559px"
       originy="-816.00002px"
       dotted="false"
       spacingy="1"
       spacingx="1"
       units="px" />
  </sodipodi:namedview>
  <metadata
     id="metadata7">
    <rdf:RDF>
      <cc:Work
         rdf:about="">
        <dc:format>image/svg+xml</dc:format>
        <dc:type
           rdf:resource="http://purl.org/dc/dcmitype/StillImage" />
        <dc:title />
      </cc:Work>
    </rdf:RDF>
  </metadata>
  <g
     inkscape:label="Livello 1"
     inkscape:groupmode="layer"
     id="layer1"
     transform="translate(-31.97559,-220.36218)">
    <path
       style="opacity:0.108;fill:#bebebe;fill-opacity:1;fill-rule:evenodd;stroke:none;stroke-width:0.999999px;stroke-linecap:butt;stroke-linejoin:miter;stroke-opacity:1"
       d="m 35.505916,222.06909 v 1.79803 H 33.70789 l -0.0018,0.89374 0.0035,0.0105 h 1.796264 v 1.79276 h -1.79627 v 0.89901 h 1.79627 v 1.79803 h -1.79627 v 0.89901 h 1.79627 v 1.79803 h -1.79627 v 0.89901 h 1.79627 v 1.79802 h 0.899013 v -1.79802 h 1.798026 v 1.79802 h 0.899013 v -1.79802 h 1.798026 v 1.79802 h 0.899013 v -1.79802 h 1.798026 v 1.79802 h 0.899013 v -1.79802 h 1.799781 v -0.89901 h -1.799781 v -1.79803 h 1.799781 v -0.89901 h -1.799781 v -1.79803 h 1.799781 v -0.89901 h -1.799781 v -1.79803 h 1.798026 v -0.89901 h -1.798026 v -1.79803 h -0.899013 v 1.79803 h -1.798026 v -1.79803 h -0.899013 v 1.79803 h -1.798026 v -1.79803 h -0.899013 v 1.79803 h -1.798026 v -1.79803 z m 6.293091,2.6988 h 1.798026 v 1.79627 h -1.798026 z m -5.394078,0.002 h 1.798026 v 1.79452 h -1.798026 z m 2.697039,0 h 1.798026 v 1.79452 h -1.798026 z m -2.697039,2.69353 h 1.798026 v 1.79803 h -1.798026 z m 2.697039,0 h 1.798026 v 1.79803 h -1.798026 z m 2.697039,0 h 1.798026 v 1.79803 h -1.798026 z m -5.394078,2.69704 h 1.798026 v 1.79803 h -1.798026 z m 2.697039,0 h 1.798026 v 1.79803 h -1.798026 z m 2.697039,0 h 1.798026 v 1.79803 h -1.798026 z"
       id="path5266" />
    <path
       style="color:#000000;font-style:normal;font-variant:normal;font-weight:normal;font-stretch:normal;font-size:medium;line-height:normal;font-family:sans-serif;text-indent:0;text-align:start;text-decoration:none;text-decoration-line:none;text-decoration-style:solid;text-decoration-color:#000000;letter-spacing:normal;word-spacing:normal;text-transform:none;writing-mode:lr-tb;direction:ltr;baseline-shift:baseline;text-anchor:start;white-space:normal;clip-rule:nonzero;display:inline;overflow:visible;visibility:visible;opacity:1;isolation:auto;mix-blend-mode:normal;color-interpolation:sRGB;color-interpolation-filters:linearRGB;solid-color:#000000;solid-opacity:1;fill:#bebebe;fill-opacity:1;fill-rule:evenodd;stroke:none;stroke-width:0.999998px;stroke-linecap:round;stroke-linejoin:miter;stroke-miterlimit:4;stroke-dasharray:none;stroke-dashoffset:0;stroke-opacity:1;color-rendering:auto;image-rendering:auto;shape-rendering:auto;text-rendering:auto;enable-background:accumulate"
       d="m 45.189258,222.71628 a 0.43389327,0.43389327 0 0 0 -0.411819,0.36436 c -0.581745,3.26335 -1.866589,5.45437 -3.613155,7.00431 -1.746566,1.54994 -3.978638,2.4617 -6.473854,3.06236 a 0.43389327,0.43389327 0 1 0 0.203368,0.84229 c 2.574527,-0.61976 4.952189,-1.57436 6.846692,-3.25558 1.894505,-1.68122 3.282066,-4.08617 3.891092,-7.50254 a 0.43389327,0.43389327 0 0 0 -0.442324,-0.5152 z"
       id="path5913"
       inkscape:connector-curvature="0" />
    <path
       style="baseline-shift:baseline;display:inline;overflow:visible;vector-effect:none;fill:#bebebe;stroke-linecap:round;stroke-linejoin:round;shape-rendering:auto;enable-background:accumulate;stop-color:#000000;stop-opacity:1;opacity:1"
       d="m 34.546875,220.34375 c -1.396997,0 -2.544922,1.14793 -2.544922,2.54492 v 10.91797 c 0,1.397 1.147925,2.54492 2.544922,2.54492 h 10.896484 c 1.396997,0 2.544922,-1.14792 2.544922,-2.54492 v -10.91797 c 0,-1.39699 -1.147925,-2.54492 -2.544922,-2.54492 z m 0,1.5 h 10.896484 c 0.591943,0 1.044922,0.45298 1.044922,1.04492 v 10.91797 c 0,0.59194 -0.452979,1.04492 -1.044922,1.04492 H 34.546875 c -0.591943,0 -1.044922,-0.45298 -1.044922,-1.04492 v -10.91797 c 0,-0.59194 0.452979,-1.04492 1.044922,-1.04492 z"
       id="rect2" />
  </g>
</svg>
