<?xml version="1.0" encoding="UTF-8"?>
<svg xmlns="http://www.w3.org/2000/svg" height="16px" viewBox="0 0 16 16" width="16px"><g fill="#241f31"><path d="m 8.5 0 c -0.277344 0 -0.5 0.222656 -0.5 0.5 v 15 c 0 0.277344 0.222656 0.5 0.5 0.5 s 0.5 -0.222656 0.5 -0.5 v -15 c 0 -0.277344 -0.222656 -0.5 -0.5 -0.5 z m 0 0"/><path d="m 5.832031 1 c -1.011719 0 -1.832031 0.820312 -1.832031 1.832031 v 2.335938 c 0 1.011719 0.820312 1.832031 1.832031 1.832031 h 1.167969 v -2 h -1 v -2 h 1 v -2 z m 4.167969 0 v 2 h 1 v 2 h -1 v 2 h 1.164062 c 1.015626 0 1.835938 -0.820312 1.835938 -1.832031 v -2.335938 c 0 -1.011719 -0.820312 -1.832031 -1.835938 -1.832031 z m -6.167969 7 c -1.011719 0 -1.832031 0.820312 -1.832031 1.832031 v 2.335938 c 0 1.011719 0.820312 1.832031 1.832031 1.832031 h 3.167969 v -2 h -3 v -2 h 3 v -2 z m 6.167969 0 v 2 h 3 v 2 h -3 v 2 h 3.164062 c 1.015626 0 1.835938 -0.820312 1.835938 -1.832031 v -2.335938 c 0 -1.011719 -0.820312 -1.832031 -1.835938 -1.832031 z m 0 0"/></g></svg>
