<?xml version="1.0" encoding="UTF-8" standalone="no"?>
<svg
   height="16px"
   viewBox="0 0 16 16"
   width="16px"
   version="1.1"
   id="svg4"
   sodipodi:docname="gth-unfullscreen-symbolic.svg"
   inkscape:version="1.4.2 (ebf0e940d0, 2025-05-08)"
   xmlns:inkscape="http://www.inkscape.org/namespaces/inkscape"
   xmlns:sodipodi="http://sodipodi.sourceforge.net/DTD/sodipodi-0.dtd"
   xmlns="http://www.w3.org/2000/svg"
   xmlns:svg="http://www.w3.org/2000/svg">
  <defs
     id="defs4" />
  <sodipodi:namedview
     id="namedview4"
     pagecolor="#ffffff"
     bordercolor="#666666"
     borderopacity="1.0"
     inkscape:showpageshadow="2"
     inkscape:pageopacity="0.0"
     inkscape:pagecheckerboard="0"
     inkscape:deskcolor="#d1d1d1"
     showgrid="false"
     inkscape:zoom="69.1875"
     inkscape:cx="8.0072267"
     inkscape:cy="8"
     inkscape:window-width="2560"
     inkscape:window-height="1403"
     inkscape:window-x="0"
     inkscape:window-y="0"
     inkscape:window-maximized="1"
     inkscape:current-layer="svg4" />
  <g
     fill="#222222"
     id="g4">
    <path
       d="M 5,0 C 5.550781,0 6,0.449219 6,1 V 6 H 1 C 0.449219,6 0,5.550781 0,5 0,4.449219 0.449219,4 1,4 H 2.585938 L 0.292969,1.707031 c -0.390625,-0.390625 -0.390625,-1.023437 0,-1.414062 C 0.480469,0.105469 0.734375,0 1,0 1.265625,0 1.519531,0.105469 1.707031,0.292969 L 4,2.585938 V 1 C 4,0.449219 4.449219,0 5,0 Z m 0,0"
       id="path1" />
    <path
       d="m 11,0 c -0.550781,0 -1,0.449219 -1,1 v 5 h 5 C 15.550781,6 16,5.550781 16,5 16,4.449219 15.550781,4 15,4 h -1.585938 l 2.292969,-2.292969 c 0.390625,-0.390625 0.390625,-1.023437 0,-1.414062 C 15.519531,0.105469 15.265625,0 15,0 14.734375,0 14.480469,0.105469 14.292969,0.292969 L 12,2.585938 V 1 C 12,0.449219 11.550781,0 11,0 Z m 0,0"
       id="path2" />
    <path
       d="m 5,16 c 0.550781,0 1,-0.449219 1,-1 V 10 H 1 c -0.550781,0 -1,0.449219 -1,1 0,0.550781 0.449219,1 1,1 h 1.585938 l -2.292969,2.292969 c -0.390625,0.390625 -0.390625,1.023437 0,1.414062 C 0.480469,15.894531 0.734375,16 1,16 1.265625,16 1.519531,15.894531 1.707031,15.707031 L 4,13.414062 V 15 c 0,0.550781 0.449219,1 1,1 z m 0,0"
       id="path3" />
    <path
       d="m 11,16 c -0.550781,0 -1,-0.449219 -1,-1 v -5 h 5 c 0.550781,0 1,0.449219 1,1 0,0.550781 -0.449219,1 -1,1 h -1.585938 l 2.292969,2.292969 c 0.390625,0.390625 0.390625,1.023437 0,1.414062 C 15.519531,15.894531 15.265625,16 15,16 14.734375,16 14.480469,15.894531 14.292969,15.707031 L 12,13.414062 V 15 c 0,0.550781 -0.449219,1 -1,1 z m 0,0"
       id="path4" />
  </g>
</svg>
