<?xml version="1.0" encoding="UTF-8"?>
<svg xmlns="http://www.w3.org/2000/svg" height="16px" viewBox="0 0 16 16" width="16px"><g fill="#222222"><path d="m 8.609375 0.996094 c 0.617187 0.007812 1.238281 0.089844 1.851563 0.253906 c 3.273437 0.878906 5.558593 3.855469 5.558593 7.246094 s -2.285156 6.367187 -5.558593 7.242187 c -3.273438 0.878907 -6.742188 -0.558593 -8.4375 -3.492187 c -0.277344 -0.480469 -0.109376 -1.089844 0.367187 -1.367188 c 0.476563 -0.273437 1.089844 -0.109375 1.363281 0.367188 c 1.25 2.160156 3.78125 3.207031 6.1875 2.5625 c 2.410156 -0.644532 4.078125 -2.820313 4.078125 -5.3125 c 0 -2.496094 -1.667969 -4.667969 -4.078125 -5.3125 c -2.40625 -0.644532 -4.9375 0.402344 -6.1875 2.5625 c -0.054687 0.085937 -0.121094 0.164062 -0.199218 0.226562 l 0.015624 0.015625 l 0.011719 0.007813 l -2.5625 1 l 1 -2.3125 l 0.011719 0.011718 l 0.015625 0.011719 c 1.273437 -2.179687 3.53125 -3.519531 5.953125 -3.691406 c 0.203125 -0.015625 0.40625 -0.019531 0.609375 -0.019531 z m 0 0"/><path d="m 8.519531 4.996094 c -0.277343 0 -0.5 0.222656 -0.5 0.5 v 3.207031 l 2.144531 2.148437 c 0.195313 0.191407 0.511719 0.191407 0.707032 0 c 0.195312 -0.195312 0.195312 -0.515624 0 -0.710937 l -1.851563 -1.851563 v -2.792968 c 0 -0.277344 -0.222656 -0.5 -0.5 -0.5 z m 0 0"/><path d="m 1.019531 1.996094 c -0.550781 0 -0.9999998 0.449218 -0.9999998 1 v 4 c 0 0.550781 0.4492188 1 0.9999998 1 h 4 c 0.550781 0 1 -0.449219 1 -1 c 0 -0.550782 -0.449219 -1 -1 -1 h -3 v -3 c 0 -0.550782 -0.449219 -1 -1 -1 z m 0 0"/></g></svg>
